<svg xmlns="http://www.w3.org/2000/svg" width="96" height="25" viewBox="0 0 96 25">
  <g id="Group_316" data-name="Group 316" transform="translate(-909 -610)">
    <rect id="Rectangle_135" data-name="Rectangle 135" width="96" height="25" rx="12.5" transform="translate(909 610)" fill="#e0f6ef"/>
    <text id="Approved" transform="translate(933 628)" fill="#00ca80" font-size="14" font-family="Inter-Regular, Inter"><tspan x="0" y="0">Approved</tspan></text>
    <g id="Icon_ionic-ios-checkmark-circle-outline" data-name="Icon ionic-ios-checkmark-circle-outline" transform="translate(909.939 609.073)">
      <path id="Path_3" data-name="Path 3" d="M20.382,13.143l-.817-.878a.172.172,0,0,0-.13-.058h0a.165.165,0,0,0-.13.058l-5.666,5.962-2.062-2.154a.174.174,0,0,0-.26,0l-.827.864a.2.2,0,0,0,0,.277l2.6,2.717a.809.809,0,0,0,.543.277.849.849,0,0,0,.539-.267h0l6.209-6.52A.214.214,0,0,0,20.382,13.143Z" transform="translate(-3.375 -3.375)" fill="#00ca80"/>
    </g>
  </g>
</svg>
