<?xml version="1.0" encoding="UTF-8"?>
<svg width="18px" height="18px" version="1.1" viewBox="0 0 700 330" xmlns="http://www.w3.org/2000/svg" xmlns:xlink="http://www.w3.org/1999/xlink" fill="#868DA2">
 <g>
  <path d="m462.17 278.08c-0.41406-4.7266-2.3125-9.1992-5.4258-12.777l-179.2-207.2h-0.003907c-3.8281-4.7148-9.4062-7.6719-15.457-8.1914-6.0508-0.52344-12.055 1.4336-16.637 5.4219-4.582 3.9844-7.3477 9.6641-7.6641 15.727-0.31641 6.0664 1.8438 12 5.9844 16.441l166.43 192.5-166.43 192.5c-4.1406 4.4453-6.3008 10.379-5.9844 16.445 0.31641 6.0625 3.082 11.738 7.6641 15.727 4.582 3.9883 10.586 5.9453 16.637 5.4219s11.629-3.4766 15.457-8.1914l179.2-207.2h0.003907c3.9844-4.5781 5.9414-10.578 5.4258-16.625z"/>
  <use x="70" y="644" xlink:href="#u"/>
  <use x="90.550781" y="644" xlink:href="#c"/>
  <use x="104.359375" y="644" xlink:href="#a"/>
  <use x="123.347656" y="644" xlink:href="#g"/>
  <use x="142.242188" y="644" xlink:href="#b"/>
  <use x="155.628906" y="644" xlink:href="#a"/>
  <use x="174.617188" y="644" xlink:href="#i"/>
  <use x="204.410156" y="644" xlink:href="#h"/>
  <use x="224.453125" y="644" xlink:href="#f"/>
  <use x="252.453125" y="644" xlink:href="#e"/>
  <use x="271.578125" y="644" xlink:href="#g"/>
  <use x="290.472656" y="644" xlink:href="#t"/>
  <use x="310.515625" y="644" xlink:href="#s"/>
  <use x="320.113281" y="644" xlink:href="#a"/>
  <use x="348.851562" y="644" xlink:href="#e"/>
  <use x="367.976562" y="644" xlink:href="#f"/>
  <use x="386.230469" y="644" xlink:href="#a"/>
  <use x="70" y="672" xlink:href="#r"/>
  <use x="82.183594" y="672" xlink:href="#c"/>
  <use x="95.992188" y="672" xlink:href="#d"/>
  <use x="115.226562" y="672" xlink:href="#q"/>
  <use x="154.152344" y="672" xlink:href="#b"/>
  <use x="167.535156" y="672" xlink:href="#p"/>
  <use x="187.46875" y="672" xlink:href="#a"/>
  <use x="216.207031" y="672" xlink:href="#o"/>
  <use x="239.640625" y="672" xlink:href="#d"/>
  <use x="258.878906" y="672" xlink:href="#n"/>
  <use x="278.8125" y="672" xlink:href="#m"/>
  <use x="308.492188" y="672" xlink:href="#l"/>
  <use x="329.015625" y="672" xlink:href="#c"/>
  <use x="342.820312" y="672" xlink:href="#d"/>
  <use x="362.058594" y="672" xlink:href="#k"/>
  <use x="371.65625" y="672" xlink:href="#a"/>
  <use x="390.648438" y="672" xlink:href="#j"/>
  <use x="407.242188" y="672" xlink:href="#b"/>
 </g>
</svg>
