<svg xmlns="http://www.w3.org/2000/svg" width="51.997" height="48" viewBox="0 0 51.997 48">
  <g id="Group_173" data-name="Group 173" transform="translate(-802.001 -467.696)">
    <g id="Group_174" data-name="Group 174" transform="translate(803.001 468.696)">
      <g id="Icon_feather-file-text" data-name="Icon feather-file-text">
        <path class='article1' id="Path_21" data-name="Path 21" d="M27.875,3h-17.5A4.492,4.492,0,0,0,6,7.6V44.4A4.492,4.492,0,0,0,10.375,49h26.25A4.492,4.492,0,0,0,41,44.4V16.8Z" transform="translate(-6 -3)" fill="none" stroke="#868da2" stroke-linecap="round" stroke-linejoin="round" stroke-width="2"/>
        <path class='article2' id="Path_22" data-name="Path 22" d="M21,3V16.752H34.752" transform="translate(0.248 -3)" fill="none" stroke="#868da2" stroke-linecap="round" stroke-linejoin="round" stroke-width="2"/>
        <path class='article3' id="Path_23" data-name="Path 23" d="M28,19.5H12" transform="translate(-3.288 5.8)" fill="none" stroke="#868da2" stroke-linecap="round" stroke-linejoin="round" stroke-width="2"/>
        <path class='article4' id="Path_25" data-name="Path 25" d="M16.584,13.5H12" transform="translate(-3.31 2.6)" fill="none" stroke="#868da2" stroke-linecap="round" stroke-linejoin="round" stroke-width="2"/>
      </g>
      <g class='pen' id="Icon_material-mode-edit" data-name="Icon material-mode-edit" transform="translate(22.869 15.274)" fill="#868da2">
        <path d="M 9.418851852416992 26.62729454040527 L 8.797532081604004 26.62729454040527 L 4.500002384185791 26.62729454040527 L 3.000002145767212 26.62729454040527 L 3.000002145767212 25.12729454040527 L 3.000002145767212 20.82975578308105 L 3.000002145767212 20.20843505859375 L 3.439342260360718 19.76909446716309 L 16.11421203613281 7.09422492980957 L 17.17487144470215 6.033565044403076 L 17.3404426574707 5.867995262145996 L 19.43764305114746 3.770795106887817 C 19.93711280822754 3.27132511138916 20.60073280334473 2.996255159378052 21.30624198913574 2.996255159378052 C 22.01174163818359 2.996255159378052 22.67535209655762 3.271315097808838 23.17483139038086 3.770785093307495 L 25.85650253295898 6.452465057373047 C 26.8868522644043 7.482815265655518 26.8868522644043 9.159305572509766 25.85650253295898 10.18965530395508 L 23.75930213928223 12.28685474395752 L 22.69864273071289 13.34751510620117 L 22.53307151794434 13.51308536529541 L 9.858192443847656 26.18795585632324 L 9.418851852416992 26.62729454040527 Z" stroke="none"/>
        <path class='circlePen' d="M 8.797532081604004 25.12729454040527 L 21.472412109375 12.45242500305176 L 17.17487144470215 8.154885292053223 L 4.500002384185791 20.82975578308105 L 4.500002384185791 25.12729454040527 L 8.797532081604004 25.12729454040527 M 22.69864273071289 11.22619533538818 L 24.79584312438965 9.128994941711426 C 25.24278259277344 8.682055473327637 25.24278259277344 7.960065364837646 24.79584312438965 7.513124942779541 L 22.11418151855469 4.831455230712891 C 21.66723251342773 4.38451623916626 20.94524383544922 4.384513378143311 20.4983024597168 4.831455230712891 L 18.40110206604004 6.92865514755249 L 22.69864273071289 11.22619533538818 M 10.0401725769043 28.12729454040527 L 1.500002264976501 28.12729454040527 L 1.500002264976501 19.58711433410645 L 18.37698173522949 2.710135221481323 C 19.15976142883301 1.927355170249939 20.2000617980957 1.496255159378052 21.30624198913574 1.496255159378052 C 22.41242218017578 1.496255159378052 23.45272254943848 1.927355170249939 24.23550224304199 2.710135221481323 L 26.91716194152832 5.391805171966553 C 28.53236198425293 7.007005214691162 28.53236198425293 9.635115623474121 26.91716194152832 11.25031471252441 L 10.0401725769043 28.12729454040527 Z" stroke="none" fill="#fff"/>
      </g>
      <path class='article5' id="Path_26" data-name="Path 26" d="M28,25.5H12" transform="translate(-3.366 8.789)" fill="none" stroke="#868da2" stroke-linecap="round" stroke-linejoin="round" stroke-width="2"/>
    </g>
  </g>
</svg>
