<svg xmlns="http://www.w3.org/2000/svg" width="76.667" height="72" viewBox="0 0 76.667 72">
  <g id="contract" transform="translate(-84.005 -29.125)">
    <path id="Path_62" data-name="Path 62" d="M234.734,193.385h12.451a1.213,1.213,0,0,0,0-2.425H234.734a1.213,1.213,0,0,0,0,2.426Z" transform="translate(-127.979 -138.59)" fill="#acb1bf"/>
    <path id="Path_63" data-name="Path 63" d="M234.734,270.105h12.451a1.213,1.213,0,0,0,0-2.425H234.734a1.213,1.213,0,0,0,0,2.426Z" transform="translate(-127.979 -204.29)" fill="#acb1bf"/>
    <path id="Path_64" data-name="Path 64" d="M234.734,346.265H261.9a1.213,1.213,0,1,0,0-2.425H234.734a1.243,1.243,0,0,0-1.213,1.213A1.19,1.19,0,0,0,234.734,346.265Z" transform="translate(-127.995 -269.511)" fill="#acb1bf"/>
    <path id="Path_66" data-name="Path 66" d="M160.671,69.509a2.326,2.326,0,0,0-.807-1.85l-3.228-3.218a2.685,2.685,0,0,0-3.793,0l-5.972,5.953V40.146a1.239,1.239,0,0,0-1.21-1.206h-8.554V30.332a1.239,1.239,0,0,0-1.21-1.206H85.215a1.239,1.239,0,0,0-1.21,1.206V90.185a1.187,1.187,0,0,0,1.21,1.206H93.77v8.527a1.187,1.187,0,0,0,1.21,1.206h50.681a1.239,1.239,0,0,0,1.21-1.206V84.312L159.865,71.36a2.326,2.326,0,0,0,.807-1.851Zm-27.439,17.94,3.551,3.54-.08.08-4.842,1.206Zm5.245,1.77-3.551-3.54,15.979-15.929,3.551,3.54ZM93.769,40.146V89.058H86.425V31.538H134.6v7.321H95.06a1.273,1.273,0,0,0-1.291,1.287ZM144.45,98.792H96.271V41.353H144.45V72.808L131.457,85.76a2.211,2.211,0,0,0-.646,1.207l-1.291,4.746a2.434,2.434,0,0,0,.646,2.414,2.508,2.508,0,0,0,1.775.724,1.582,1.582,0,0,0,.646-.08l4.761-1.287a2.34,2.34,0,0,0,1.21-.724l5.972-5.953V98.792ZM158.169,69.67,156.232,71.6l-3.551-3.54,1.937-1.931c.08-.08.08-.08.162-.08s.081,0,.162.08l3.228,3.218c.081.08.081.08.081.161s0,.081-.081.161Z" fill="#acb1bf"/>
    <path id="Path_67" data-name="Path 67" d="M374.647,190.266v1.617a.348.348,0,0,0,.323.323h1.617a.348.348,0,0,0,.323-.323v-1.617a4.936,4.936,0,0,0,2.991-1.374,3.911,3.911,0,0,0,1.051-2.911,3.041,3.041,0,0,0-.081-.889c-.081-.243-.081-.566-.162-.728a2.424,2.424,0,0,0-.323-.647c-.162-.162-.323-.4-.485-.485a1.451,1.451,0,0,0-.566-.4,4.53,4.53,0,0,1-.647-.4,8.361,8.361,0,0,0-.809-.323c-.323-.081-.566-.243-.889-.323-.243-.081-.566-.162-.97-.323a4.573,4.573,0,0,1-1.779-.809,1.234,1.234,0,0,1-.566-.97.929.929,0,0,1,.485-.889,2.051,2.051,0,0,1,1.294-.323,5.636,5.636,0,0,1,3.153,1.051c.162.081.323.081.4-.081l1.294-1.617a.381.381,0,0,0-.081-.485,11.5,11.5,0,0,0-1.455-.889,5.923,5.923,0,0,0-2.021-.647v-1.859a.348.348,0,0,0-.323-.323h-1.617a.348.348,0,0,0-.323.323v1.779a4.937,4.937,0,0,0-2.991,1.374,3.844,3.844,0,0,0-1.051,2.83,2.759,2.759,0,0,0,.081.809,1.519,1.519,0,0,0,.162.647,1.307,1.307,0,0,0,.323.566,3.5,3.5,0,0,0,.889.889,1.3,1.3,0,0,0,.566.323c.243.081.4.243.647.323a5.591,5.591,0,0,0,.647.243l.728.243.728.243c.323.081.566.162.809.243s.4.162.647.243l.485.243a.63.63,0,0,1,.323.323.618.618,0,0,1,.162.4c0,.162.081.243.081.4a1.153,1.153,0,0,1-.485.97,2.237,2.237,0,0,1-1.294.4,6.409,6.409,0,0,1-2.021-.4,6.474,6.474,0,0,1-1.7-1.051c-.162-.162-.323-.081-.485,0l-1.374,1.617a.517.517,0,0,0,0,.485,7.318,7.318,0,0,0,4.285,2.182Z" transform="translate(-245.051 -123.767)" fill="#acb1bf"/>
    <path id="Path_68" data-name="Path 68" d="M113.477,121.175a.852.852,0,0,1-.4-.1l-1.81-.964a1.043,1.043,0,0,1-.422-1.337.882.882,0,0,1,1.224-.461l.969.516,2.955-7a.906.906,0,0,1,.916-.577.944.944,0,0,1,.8.75l1.109,4.785.427-.554a.874.874,0,0,1,.87-.339.945.945,0,0,1,.7.662l.206.665,1.413-1.816a.87.87,0,0,1,.93-.32.969.969,0,0,1,.667.777l.183,1.029.045-.061a.891.891,0,0,1,.693-.377.882.882,0,0,1,.71.338l1.7,2.1h4.353a1,1,0,0,1,0,2h-4.766a.884.884,0,0,1-.686-.338l-1.249-1.544-.6.827a.873.873,0,0,1-.934.349.967.967,0,0,1-.681-.781l-.2-1.118-1.226,1.575a.873.873,0,0,1-.869.335.946.946,0,0,1-.7-.661l-.2-.656-.531.689a.872.872,0,0,1-.905.33.959.959,0,0,1-.682-.729l-.912-3.934-2.263,5.362a.951.951,0,0,1-.524.523A.846.846,0,0,1,113.477,121.175Z" transform="translate(-5.21 -26.898)" fill="#acb1bf"/>
  </g>
</svg>
