<svg xmlns="http://www.w3.org/2000/svg" width="18px" height="22px" viewBox="0 0 13.2 15.2">
  <path id="Icon_metro-file-empty" data-name="Icon metro-file-empty" d="M16.887,5.284a13.248,13.248,0,0,0-1.265-1.461,13.2,13.2,0,0,0-1.447-1.277,2.3,2.3,0,0,0-1.319-.618h-7.2A1.168,1.168,0,0,0,4.5,3.1V15.756a1.168,1.168,0,0,0,1.161,1.172H16.338A1.168,1.168,0,0,0,17.5,15.756V6.616a2.348,2.348,0,0,0-.612-1.332Zm-1.921-.8a12.747,12.747,0,0,1,1.053,1.192H13.784V3.423A12.691,12.691,0,0,1,14.965,4.486Zm1.605,11.27a.236.236,0,0,1-.232.234H5.659a.236.236,0,0,1-.232-.234V3.1a.236.236,0,0,1,.232-.234h7.2V6.147a.467.467,0,0,0,.464.469h3.25Z" transform="translate(-4.399 -1.828)" fill="#0f0f0f" stroke="#fff" stroke-width="0.2"/>
</svg>
