<svg xmlns="http://www.w3.org/2000/svg" width="40.998" height="40" viewBox="0 0 40.998 40">
  <g id="Group_509" data-name="Group 509" transform="translate(-578.002 -903)">
    <g id="noun-newspaper-4085367" transform="translate(508.004 903.004)">
      <path id="Path_38" data-name="Path 38" d="M98.56,0H81a3.441,3.441,0,0,0-3.438,3.438V7.559H73.436A3.441,3.441,0,0,0,70,11V27.277A4.724,4.724,0,0,0,74.717,32H96.061A5.944,5.944,0,0,0,102,26.058V3.434A3.441,3.441,0,0,0,98.561,0ZM71.873,27.277V11a1.562,1.562,0,0,1,1.562-1.562H77.56V27.278a2.844,2.844,0,0,1-5.687,0Zm28.25-1.219a4.067,4.067,0,0,1-4.062,4.062H78.48a4.691,4.691,0,0,0,.956-2.844V3.433A1.562,1.562,0,0,1,81,1.871H98.56a1.562,1.562,0,0,1,1.562,1.562Z" fill="#b8c3d8"/>
      <path id="Path_39" data-name="Path 39" d="M280.39,156.093h8.75a.937.937,0,0,0,0-1.875h-8.75a.937.937,0,0,0,0,1.875Z" transform="translate(-197.486 -145.409)" fill="#b8c3d8"/>
      <path id="Path_40" data-name="Path 40" d="M294.14,257.16H280.39a.937.937,0,0,0,0,1.875h13.75a.937.937,0,0,0,0-1.875Z" transform="translate(-197.486 -242.469)" fill="#b8c3d8"/>
      <path id="Path_41" data-name="Path 41" d="M294.14,372.97H280.39a.937.937,0,0,0,0,1.875h13.75a.937.937,0,0,0,0-1.875Z" transform="translate(-197.486 -351.661)" fill="#b8c3d8"/>
    </g>
    <g id="Group_413" data-name="Group 413" transform="translate(-1067 585)">
      <circle id="Ellipse_27" data-name="Ellipse 27" cx="9" cy="9" r="9" transform="translate(1668 340)" fill="#b8c3d8"/>
      <path id="check" d="M18.827,12.93l-.69-.679a.151.151,0,0,0-.11-.045h0a.145.145,0,0,0-.11.045l-4.78,4.612L11.4,15.2a.156.156,0,0,0-.219,0l-.7.668a.145.145,0,0,0,0,.214l2.194,2.1a.707.707,0,0,0,.458.214.74.74,0,0,0,.455-.206h0l5.239-5.043A.155.155,0,0,0,18.827,12.93Z" transform="translate(1662.628 333.981)" fill="#fefefe"/>
    </g>
  </g>
</svg>
