<svg xmlns="http://www.w3.org/2000/svg" width="28.7" height="32.7" viewBox="0 0 28.7 32.7">
  <path id="Icon_metro-file-empty" data-name="Icon metro-file-empty" d="M31.18,9.087a28.34,28.34,0,0,0-2.724-3.116A28.342,28.342,0,0,0,25.34,3.247C23.728,2.065,22.947,1.928,22.5,1.928H7a2.5,2.5,0,0,0-2.5,2.5v27a2.5,2.5,0,0,0,2.5,2.5H30a2.5,2.5,0,0,0,2.5-2.5v-19.5c0-.448-.137-1.23-1.319-2.841Zm-4.139-1.7A27.277,27.277,0,0,1,29.31,9.928H24.5V5.117A27.249,27.249,0,0,1,27.042,7.385ZM30.5,31.428a.507.507,0,0,1-.5.5H7a.507.507,0,0,1-.5-.5v-27a.507.507,0,0,1,.5-.5H22.5v7a1,1,0,0,0,1,1h7Z" transform="translate(-4.149 -1.578)" fill="#001858" stroke="#fff" stroke-width="0.7"/>
</svg>
