<svg xmlns="http://www.w3.org/2000/svg" width="20.778" height="17" viewBox="0 0 20.778 17">
  <g id="Group_288" data-name="Group 288" transform="translate(-1737.5 -774.5)">
    <g id="Group_286" data-name="Group 286" transform="translate(1 -0.158)">
      <g id="Icon_feather-monitor" data-name="Icon feather-monitor" transform="translate(1739 775.158)">
        <path id="Path_34" data-name="Path 34" d="M4.778,4.5H19a1.767,1.767,0,0,1,1.778,1.756v8.78A1.767,1.767,0,0,1,19,16.792H4.778A1.767,1.767,0,0,1,3,15.036V6.256A1.767,1.767,0,0,1,4.778,4.5Z" transform="translate(-3 -4.5)" fill="none" stroke="#1c67ff" stroke-linecap="round" stroke-linejoin="round" stroke-width="1"/>
        <path id="Path_35" data-name="Path 35" d="M12,31.5h7.415" transform="translate(-6.819 -15.5)" fill="none" stroke="#1c67ff" stroke-linecap="round" stroke-linejoin="round" stroke-width="1"/>
        <path id="Path_36" data-name="Path 36" d="M18,25.5v3.708" transform="translate(-9.111 -13.208)" fill="none" stroke="#1c67ff" stroke-linecap="round" stroke-linejoin="round" stroke-width="1"/>
      </g>
      <g id="Path_37" data-name="Path 37" transform="translate(4264.008 -11066.745)" fill="#1c67ff" stroke-linecap="round">
        <path d="M -2526.649169921875 11852.92578125 C -2526.772216796875 11852.92578125 -2526.89111328125 11852.8857421875 -2526.992919921875 11852.8095703125 C -2527.26123046875 11852.61328125 -2527.339111328125 11852.22265625 -2527.168701171875 11851.919921875 L -2524.3359375 11846.9052734375 C -2524.231689453125 11846.7197265625 -2524.051513671875 11846.603515625 -2523.85205078125 11846.591796875 C -2523.837890625 11846.58984375 -2523.825927734375 11846.58984375 -2523.81591796875 11846.58984375 C -2523.6201171875 11846.58984375 -2523.434814453125 11846.693359375 -2523.320068359375 11846.865234375 L -2521.333740234375 11849.892578125 L -2517.708984375 11844.6884765625 C -2517.59326171875 11844.521484375 -2517.41552734375 11844.42578125 -2517.221435546875 11844.42578125 C -2517.197509765625 11844.42578125 -2517.17333984375 11844.427734375 -2517.1494140625 11844.4306640625 C -2516.93115234375 11844.4619140625 -2516.751953125 11844.6064453125 -2516.6650390625 11844.818359375 L -2515.140380859375 11848.541015625 L -2514.613037109375 11847.19921875 C -2514.517578125 11846.9560546875 -2514.29736328125 11846.798828125 -2514.05224609375 11846.798828125 L -2511.36767578125 11846.798828125 C -2511.03173828125 11846.798828125 -2510.75830078125 11847.0947265625 -2510.75830078125 11847.458984375 C -2510.75830078125 11847.8232421875 -2511.03173828125 11848.119140625 -2511.36767578125 11848.119140625 L -2513.64892578125 11848.119140625 L -2514.568115234375 11850.45703125 C -2514.66259765625 11850.6962890625 -2514.880126953125 11850.8544921875 -2515.12255859375 11850.857421875 L -2515.124267578125 11850.857421875 L -2515.12890625 11850.857421875 C -2515.370361328125 11850.857421875 -2515.589111328125 11850.703125 -2515.686279296875 11850.4638671875 L -2517.359619140625 11846.3798828125 L -2520.86181640625 11851.408203125 C -2520.9755859375 11851.572265625 -2521.157470703125 11851.6708984375 -2521.348388671875 11851.6708984375 L -2521.353759765625 11851.6708984375 C -2521.550048828125 11851.66796875 -2521.73193359375 11851.564453125 -2521.844482421875 11851.3955078125 L -2523.778076171875 11848.44921875 L -2526.128662109375 11852.6103515625 C -2526.2412109375 11852.8076171875 -2526.435546875 11852.92578125 -2526.649169921875 11852.92578125 Z" stroke="none"/>
        <path d="M -2526.649169921875 11852.67578125 C -2526.53076171875 11852.67578125 -2526.415283203125 11852.6083984375 -2526.346435546875 11852.4873046875 L -2523.7939453125 11847.96875 L -2521.63623046875 11851.2568359375 C -2521.5693359375 11851.357421875 -2521.465087890625 11851.4189453125 -2521.353759765625 11851.4208984375 C -2521.35205078125 11851.4208984375 -2521.35009765625 11851.4208984375 -2521.348388671875 11851.4208984375 C -2521.239013671875 11851.4208984375 -2521.13525390625 11851.3642578125 -2521.06689453125 11851.265625 L -2517.30224609375 11845.8603515625 L -2515.45458984375 11850.3701171875 C -2515.3955078125 11850.515625 -2515.2685546875 11850.607421875 -2515.12890625 11850.607421875 C -2515.1279296875 11850.607421875 -2515.127197265625 11850.607421875 -2515.1259765625 11850.607421875 C -2514.985595703125 11850.60546875 -2514.8583984375 11850.51171875 -2514.80078125 11850.365234375 L -2513.8193359375 11847.869140625 L -2511.36767578125 11847.869140625 C -2511.1689453125 11847.869140625 -2511.00830078125 11847.685546875 -2511.00830078125 11847.458984375 C -2511.00830078125 11847.232421875 -2511.1689453125 11847.048828125 -2511.36767578125 11847.048828125 L -2514.05224609375 11847.048828125 C -2514.19384765625 11847.048828125 -2514.322509765625 11847.1435546875 -2514.38037109375 11847.291015625 L -2515.135498046875 11849.2119140625 L -2516.896484375 11844.9130859375 C -2516.94921875 11844.7841796875 -2517.056640625 11844.6962890625 -2517.18017578125 11844.6787109375 C -2517.194091796875 11844.6767578125 -2517.207763671875 11844.67578125 -2517.221435546875 11844.67578125 C -2517.332275390625 11844.67578125 -2517.43505859375 11844.7314453125 -2517.50390625 11844.8310546875 L -2521.33984375 11850.3388671875 L -2523.5283203125 11847.00390625 C -2523.596435546875 11846.9013671875 -2523.702880859375 11846.83984375 -2523.81591796875 11846.83984375 C -2523.820068359375 11846.83984375 -2523.82421875 11846.83984375 -2523.82861328125 11846.8408203125 C -2523.9462890625 11846.8447265625 -2524.054443359375 11846.9150390625 -2524.1181640625 11847.0283203125 L -2526.950927734375 11852.04296875 C -2527.058349609375 11852.2333984375 -2527.010498046875 11852.4873046875 -2526.843505859375 11852.609375 C -2526.783203125 11852.654296875 -2526.7158203125 11852.67578125 -2526.649169921875 11852.67578125 M -2526.649169921875 11853.17578125 C -2526.826416015625 11853.17578125 -2526.9970703125 11853.1181640625 -2527.142333984375 11853.0107421875 C -2527.50927734375 11852.7421875 -2527.6181640625 11852.2080078125 -2527.386474609375 11851.796875 L -2524.553466796875 11846.7822265625 C -2524.408447265625 11846.5244140625 -2524.1552734375 11846.361328125 -2523.872802734375 11846.3427734375 C -2523.849853515625 11846.33984375 -2523.830810546875 11846.33984375 -2523.81591796875 11846.33984375 C -2523.5361328125 11846.33984375 -2523.27294921875 11846.484375 -2523.11181640625 11846.7275390625 L -2521.32763671875 11849.4462890625 L -2517.914306640625 11844.544921875 C -2517.751220703125 11844.310546875 -2517.49853515625 11844.17578125 -2517.221435546875 11844.17578125 C -2517.187255859375 11844.17578125 -2517.15283203125 11844.1787109375 -2517.118896484375 11844.1826171875 L -2517.109619140625 11844.18359375 C -2516.811767578125 11844.2265625 -2516.552734375 11844.4326171875 -2516.433837890625 11844.7236328125 L -2515.14501953125 11847.869140625 L -2514.845703125 11847.1083984375 C -2514.71240234375 11846.7685546875 -2514.40087890625 11846.548828125 -2514.05224609375 11846.548828125 L -2511.36767578125 11846.548828125 C -2510.893798828125 11846.548828125 -2510.50830078125 11846.95703125 -2510.50830078125 11847.458984375 C -2510.50830078125 11847.9609375 -2510.893798828125 11848.369140625 -2511.36767578125 11848.369140625 L -2513.478759765625 11848.369140625 L -2514.33544921875 11850.5478515625 C -2514.46728515625 11850.8828125 -2514.774658203125 11851.1025390625 -2515.119140625 11851.107421875 L -2515.1259765625 11851.107421875 C -2515.47265625 11851.107421875 -2515.782470703125 11850.8916015625 -2515.917724609375 11850.55859375 L -2517.416748046875 11846.8994140625 L -2520.656494140625 11851.5517578125 C -2520.816650390625 11851.7822265625 -2521.07568359375 11851.9208984375 -2521.348388671875 11851.9208984375 L -2521.362548828125 11851.9208984375 C -2521.63671875 11851.916015625 -2521.89453125 11851.771484375 -2522.052490234375 11851.5341796875 L -2523.761962890625 11848.9287109375 L -2525.9111328125 11852.7333984375 C -2526.066650390625 11853.0068359375 -2526.34912109375 11853.17578125 -2526.649169921875 11853.17578125 Z" stroke="none" fill="#f9fafb"/>
      </g>
      <circle id="Ellipse_63" data-name="Ellipse 63" cx="1.15" cy="1.15" r="1.15" transform="translate(1751.557 779.635)" fill="#1c67ff"/>
    </g>
  </g>
</svg>
