<svg xmlns="http://www.w3.org/2000/svg" width="32" height="41" viewBox="0 0 32 41">
  <g id="invoice" transform="translate(1 1)">
    <g id="Group_397" data-name="Group 397">
      <g id="Icon_feather-file-text" data-name="Icon feather-file-text">
        <path id="Path_21" data-name="Path 21" d="M24.75,3h-15A3.827,3.827,0,0,0,6,6.9V38.1A3.827,3.827,0,0,0,9.75,42h22.5A3.827,3.827,0,0,0,36,38.1V14.7Z" transform="translate(-6 -3)" fill="none" stroke="#b8c3d8" stroke-linecap="round" stroke-linejoin="round" stroke-width="2"/>
        <path id="Path_22" data-name="Path 22" d="M21,3V14.938H32.938" transform="translate(-2.938 -3)" fill="none" stroke="#b8c3d8" stroke-linecap="round" stroke-linejoin="round" stroke-width="2"/>
        <path id="Path_23" data-name="Path 23" d="M25.89,19.5H12" transform="translate(-4.613 -0.016)" fill="none" stroke="#b8c3d8" stroke-linecap="round" stroke-linejoin="round" stroke-width="2"/>
        <path id="Path_25" data-name="Path 25" d="M15.979,13.5H12" transform="translate(-4.566 0.15)" fill="none" stroke="#b8c3d8" stroke-linecap="round" stroke-linejoin="round" stroke-width="2"/>
      </g>
    </g>
    <path id="Icon_metro-dollar2" data-name="Icon metro-dollar2" d="M16.434,10.429a2.641,2.641,0,0,1-.691,1.829,2.981,2.981,0,0,1-1.794.948V14.42a.214.214,0,0,1-.222.222H12.79a.225.225,0,0,1-.222-.222V13.206a4.375,4.375,0,0,1-.885-.215,4.263,4.263,0,0,1-1.218-.642,3.956,3.956,0,0,1-.323-.26q-.087-.083-.121-.125a.211.211,0,0,1-.014-.285l.715-.937a.216.216,0,0,1,.16-.083.172.172,0,0,1,.167.062l.014.014a3.625,3.625,0,0,0,1.687.868,2.425,2.425,0,0,0,.514.056,1.683,1.683,0,0,0,.989-.3.972.972,0,0,0,.427-.847.7.7,0,0,0-.1-.368,1.3,1.3,0,0,0-.233-.292,1.905,1.905,0,0,0-.406-.26q-.278-.142-.458-.222t-.555-.226l-.427-.174q-.156-.062-.427-.184t-.434-.215q-.163-.094-.392-.246a2.444,2.444,0,0,1-.371-.3,4.326,4.326,0,0,1-.3-.34,1.7,1.7,0,0,1-.246-.4,2.784,2.784,0,0,1-.146-.462,2.409,2.409,0,0,1-.059-.541,2.373,2.373,0,0,1,.68-1.68,3.176,3.176,0,0,1,1.77-.93V2.426A.225.225,0,0,1,12.79,2.2h.937a.214.214,0,0,1,.222.222V3.647a3.861,3.861,0,0,1,.767.16,4.447,4.447,0,0,1,.6.233,3.344,3.344,0,0,1,.441.26q.208.146.271.2t.1.1a.2.2,0,0,1,.035.264l-.562,1.013a.189.189,0,0,1-.16.111.221.221,0,0,1-.187-.049q-.021-.021-.1-.083t-.271-.184a3.582,3.582,0,0,0-.406-.222,3.1,3.1,0,0,0-.517-.18,2.316,2.316,0,0,0-.594-.08,1.8,1.8,0,0,0-1.076.3.933.933,0,0,0-.358,1.1.781.781,0,0,0,.2.288,3.059,3.059,0,0,0,.274.229,2.445,2.445,0,0,0,.389.215q.26.121.42.187t.486.191q.368.139.562.219t.528.243a4.194,4.194,0,0,1,.524.3,4.432,4.432,0,0,1,.43.347,1.8,1.8,0,0,1,.368.441,2.515,2.515,0,0,1,.219.531,2.29,2.29,0,0,1,.09.652Z" transform="translate(9.698 21.241)" fill="#c5cddd"/>
  </g>
</svg>
