<svg xmlns="http://www.w3.org/2000/svg" width="34.002" height="34" viewBox="0 0 34.002 34">
  <g id="noun-like-447678" transform="translate(-102.064 -50.398)">
    <path id="Path_70" data-name="Path 70" d="M159.3,50.4c2.423,0,3.4,1.615,3.4,4.25a23.987,23.987,0,0,1-2.295,9.223c1.87.17,3.783.128,5.695.128,3.188,0,5.1,1.317,5.1,3.825a2.847,2.847,0,0,1-1.317,2.423l.042.042c.68,1.572.637,3.1-.893,4.208l.042.042c.68,1.572.637,3.1-.893,4.208l.042.042c.468,1.317.382.722.468,1.785,0,2.338-1.7,3.825-4.25,3.825H159.3a61.9,61.9,0,0,1-8.84-.68c-.722-.127-1.445-.213-2.21-.382v.213a.852.852,0,0,1-.85.85h-9.35a.852.852,0,0,1-.85-.85v-20.4a.852.852,0,0,1,.85-.85h9.35a.852.852,0,0,1,.85.85v.127a18.654,18.654,0,0,0,4.59-4.548,16.859,16.859,0,0,0,1.02-1.572c.467-.808,2.083-4.08,2.465-4.718.808-1.275,1.7-2.04,2.975-2.04ZM138.9,64V82.7h7.65V64Zm20.4-11.9c-1.7,0-2.55,4.25-5.1,7.65a21.656,21.656,0,0,1-5.695,5.44l-.255.127V81.55A53.585,53.585,0,0,0,159.3,82.7h5.1c1.7,0,2.55-.85,2.55-2.125s-.85-1.275-.85-2.125,1.7-.85,1.7-2.125-.85-1.275-.85-2.125,1.7-.85,1.7-2.125-.85-1.275-.85-2.125,1.7-.85,1.7-2.125-.85-2.125-3.4-2.125c-5.95,0-8.5,0-7.65-1.7a24.029,24.029,0,0,0,2.55-9.35c0-1.7-.382-2.55-1.7-2.55Z" transform="translate(-35.141 0)" fill="#b8c3d8"/>
  </g>
</svg>
