<svg xmlns="http://www.w3.org/2000/svg" width="18" height="20" viewBox="0 0 18 20">
  <g id="Group_320" data-name="Group 320" transform="translate(-1081 -622.5)">
    <path id="Path_47" data-name="Path 47" d="M-13191.27-505.365v17.822h16.552v-12.926l-5.25-5.331Z" transform="translate(14273 1129)" fill="#ededf0"/>
    <path id="Icon_metro-file-empty" data-name="Icon metro-file-empty" d="M21.651,6.4A17.871,17.871,0,0,0,19.9,4.455a18.079,18.079,0,0,0-2-1.7,3.252,3.252,0,0,0-1.827-.824H6.106A1.587,1.587,0,0,0,4.5,3.491V20.366a1.587,1.587,0,0,0,1.607,1.563H20.892A1.587,1.587,0,0,0,22.5,20.366V8.178c0-.28-.088-.769-.848-1.776Zm-2.66-1.063a17.214,17.214,0,0,1,1.458,1.589H17.356V3.921a17.368,17.368,0,0,1,1.635,1.417Zm2.222,15.027a.321.321,0,0,1-.321.313H6.106a.321.321,0,0,1-.321-.312V3.491a.321.321,0,0,1,.321-.312H16.07V7.553a.634.634,0,0,0,.643.625h4.5Z" transform="translate(1076.501 620.572)" fill="#1c67ff"/>
  </g>
</svg>
