<svg xmlns="http://www.w3.org/2000/svg" width="15.141" height="11.595" viewBox="0 0 15.141 11.595">
  <g id="Icon_ionic-ios-checkmark-circle-outline" data-name="Icon ionic-ios-checkmark-circle-outline" transform="translate(-7.059 -8.831)">
    <path id="Path_3" data-name="Path 3" d="M25.5,13.563l-1.237-1.273a.266.266,0,0,0-.2-.084h0a.255.255,0,0,0-.2.084l-8.578,8.641L12.164,17.81a.272.272,0,0,0-.394,0l-1.252,1.252a.28.28,0,0,0,0,.4L14.456,23.4a1.245,1.245,0,0,0,.823.4,1.3,1.3,0,0,0,.816-.387H16.1l9.4-9.45A.3.3,0,0,0,25.5,13.563Z" transform="translate(-3.375 -3.375)" fill="#00ca80"/>
  </g>
</svg>
