<svg xmlns="http://www.w3.org/2000/svg" width="18.004" height="18.006" viewBox="0 0 18.004 18.006">
  <path id="unmark" d="M23536.945-719.349l-3.609-3.622a1.178,1.178,0,0,0-.84-.349,1.16,1.16,0,0,0-.832.349l-3.611,3.622a1.217,1.217,0,0,1-.85.354,1.2,1.2,0,0,1-1.2-1.17l13-13v12.956a1.213,1.213,0,0,1-1.207,1.211A1.217,1.217,0,0,1,23536.945-719.349Zm-13.8.2a.5.5,0,0,1,0-.7l14.965-14.965,2.037-2.038a.5.5,0,0,1,.709,0,.5.5,0,0,1,0,.709l-2.037,2.038h0l-6.236,6.233L23526-721.3v0l-2.15,2.15a.485.485,0,0,1-.355.148A.49.49,0,0,1,23523.145-719.149Zm2.859-4.7v-9.518a1.636,1.636,0,0,1,.479-1.158,1.642,1.642,0,0,1,1.152-.479h9.523L23526-723.845v.006Z" transform="translate(-23522.998 737.001)" />
</svg>
